<svg width="82" height="82" viewBox="0 0 82 82" fill="none" xmlns="http://www.w3.org/2000/svg">
  <path d="M41 0.166672C18.46 0.166672 0.166687 18.46 0.166687 41C0.166687 63.54 18.46 81.8333 41 81.8333C63.54 81.8333 81.8334 63.54 81.8334 41C81.8334 18.46 63.54 0.166672 41 0.166672ZM41 12.4167C47.7784 12.4167 53.25 17.8883 53.25 24.6667C53.25 31.445 47.7784 36.9167 41 36.9167C34.2217 36.9167 28.75 31.445 28.75 24.6667C28.75 17.8883 34.2217 12.4167 41 12.4167ZM41 70.4C30.7917 70.4 21.7675 65.1733 16.5 57.2517C16.6225 49.1258 32.8334 44.675 41 44.675C49.1259 44.675 65.3775 49.1258 65.5 57.2517C60.2325 65.1733 51.2084 70.4 41 70.4Z" fill="#C3C3C3"/>
</svg>
