<svg width="776" height="160" viewBox="0 0 776 160" fill="none" xmlns="http://www.w3.org/2000/svg">
<g opacity="0.8">
<path fill-rule="evenodd" clip-rule="evenodd" d="M93.9429 106.286L131.886 160H106.971L72.4572 110.857C69.2571 111.086 65.8286 111.314 62.4 111.314H22.8571V160H0V0H62.4C104 0 129.143 21.0286 129.143 55.7714C129.143 80.4571 116.343 98.2857 93.9429 106.286ZM22.8571 91.8857H61.7143C90.9714 91.8857 106.286 78.6286 106.286 55.7714C106.286 32.9143 90.9714 19.8857 61.7143 19.8857H22.8571V91.8857Z" fill="#212121"/>
<path d="M191 160H213.857V0H191V160Z" fill="#212121"/>
<path d="M391.914 0V19.8857H301.857V75.6572H382.086V95.3143H301.857V160H279V0H391.914Z" fill="#212121"/>
<path d="M548.117 130.056C536.944 137.207 524.654 140.112 511.469 140.112C475.492 140.112 449.346 114.413 449.346 80C449.346 45.1397 475.492 19.8883 511.693 19.8883C529.346 19.8883 544.095 25.4749 557.056 37.9888L570.911 24.1341C556.609 8.26816 535.603 0 510.799 0C462.307 0 427 33.743 427 80C427 126.257 462.307 160 510.352 160C532.251 160 553.927 153.296 569.57 140.112V79.1061H548.117V130.056Z" fill="#212121"/>
<path fill-rule="evenodd" clip-rule="evenodd" d="M693.095 160C740.693 160 776 126.034 776 80C776 33.9665 740.693 0 693.095 0C645.05 0 609.743 34.1899 609.743 80C609.743 125.81 645.05 160 693.095 160ZM693.095 140.112C658.011 140.112 632.089 114.637 632.089 80C632.089 45.3631 658.011 19.8883 693.095 19.8883C727.732 19.8883 753.654 45.3631 753.654 80C753.654 114.637 727.732 140.112 693.095 140.112Z" fill="#212121"/>
</g>
</svg>
