<svg width="32" height="32" viewBox="0 0 32 32" fill="none" xmlns="http://www.w3.org/2000/svg">
  <path fill-rule="evenodd" clip-rule="evenodd" d="M0 16C0 7.16344 7.16344 0 16 0C24.8366 0 32 7.16344 32 16C32 24.8366 24.8366 32 16 32C7.16344 32 0 24.8366 0 16ZM16.0008 7.46667C13.6833 7.46667 13.3924 7.4768 12.4822 7.51822C11.5737 7.55982 10.9536 7.70365 10.4111 7.91467C9.8498 8.13263 9.37371 8.42419 8.89939 8.89868C8.42472 9.373 8.13316 9.84909 7.91449 10.4102C7.70294 10.9529 7.55893 11.5732 7.51804 12.4813C7.47733 13.3915 7.46667 13.6826 7.46667 16.0001C7.46667 18.3176 7.47698 18.6076 7.51822 19.5178C7.56 20.4263 7.70382 21.0464 7.91467 21.5889C8.13281 22.1502 8.42437 22.6263 8.89886 23.1006C9.373 23.5753 9.84909 23.8675 10.41 24.0855C10.9529 24.2965 11.5732 24.4404 12.4815 24.482C13.3917 24.5234 13.6824 24.5335 15.9997 24.5335C18.3174 24.5335 18.6074 24.5234 19.5176 24.482C20.4261 24.4404 21.0469 24.2965 21.5898 24.0855C22.1509 23.8675 22.6263 23.5753 23.1004 23.1006C23.5751 22.6263 23.8667 22.1502 24.0853 21.5891C24.2951 21.0464 24.4391 20.4261 24.4818 19.518C24.5227 18.6078 24.5333 18.3176 24.5333 16.0001C24.5333 13.6826 24.5227 13.3917 24.4818 12.4815C24.4391 11.573 24.2951 10.9529 24.0853 10.4103C23.8667 9.84909 23.5751 9.373 23.1004 8.89868C22.6258 8.42401 22.1511 8.13245 21.5893 7.91467C21.0453 7.70365 20.4248 7.55982 19.5164 7.51822C18.6062 7.4768 18.3164 7.46667 15.9981 7.46667H16.0008Z" fill="#333333"/>
  <path fill-rule="evenodd" clip-rule="evenodd" d="M15.2353 9.00446C15.4625 9.00411 15.716 9.00446 16.0008 9.00446C18.2792 9.00446 18.5493 9.01264 19.449 9.05353C20.281 9.09157 20.7326 9.2306 21.0334 9.3474C21.4316 9.50207 21.7155 9.68696 22.014 9.98563C22.3127 10.2843 22.4976 10.5687 22.6526 10.967C22.7694 11.2674 22.9086 11.719 22.9465 12.551C22.9874 13.4506 22.9963 13.7208 22.9963 15.9981C22.9963 18.2755 22.9874 18.5457 22.9465 19.4453C22.9084 20.2773 22.7694 20.7288 22.6526 21.0293C22.4979 21.4275 22.3127 21.7111 22.014 22.0096C21.7153 22.3082 21.4318 22.4931 21.0334 22.6478C20.7329 22.7651 20.281 22.9038 19.449 22.9418C18.5494 22.9827 18.2792 22.9916 16.0008 22.9916C13.7222 22.9916 13.4522 22.9827 12.5526 22.9418C11.7206 22.9035 11.269 22.7644 10.968 22.6476C10.5698 22.493 10.2854 22.3081 9.98669 22.0094C9.68802 21.7107 9.50313 21.427 9.34811 21.0286C9.23131 20.7281 9.09211 20.2766 9.05424 19.4446C9.01335 18.545 9.00517 18.2748 9.00517 15.996C9.00517 13.7172 9.01335 13.4484 9.05424 12.5489C9.09228 11.7168 9.23131 11.2653 9.34811 10.9645C9.50278 10.5663 9.68802 10.2818 9.98669 9.98314C10.2854 9.68447 10.5698 9.49958 10.968 9.34455C11.2688 9.22722 11.7206 9.08855 12.5526 9.05033C13.3398 9.01477 13.6449 9.0041 15.2353 9.00233V9.00446ZM20.5559 10.4214C19.9905 10.4214 19.5319 10.8795 19.5319 11.445C19.5319 12.0104 19.9905 12.469 20.5559 12.469C21.1212 12.469 21.5799 12.0104 21.5799 11.445C21.5799 10.8797 21.1212 10.4214 20.5559 10.4214ZM16.0008 11.6178C13.5807 11.6178 11.6185 13.58 11.6185 16.0001C11.6185 18.4202 13.5807 20.3815 16.0008 20.3815C18.4209 20.3815 20.3824 18.4202 20.3824 16.0001C20.3824 13.58 18.4209 11.6178 16.0008 11.6178Z" fill="#333333"/>
  <path fill-rule="evenodd" clip-rule="evenodd" d="M16.0008 13.1556C17.5717 13.1556 18.8453 14.4291 18.8453 16.0001C18.8453 17.5709 17.5717 18.8446 16.0008 18.8446C14.4298 18.8446 13.1563 17.5709 13.1563 16.0001C13.1563 14.4291 14.4298 13.1556 16.0008 13.1556Z" fill="#333333"/>
</svg>
